<svg width="351" height="487" viewBox="0 0 351 487" fill="none" xmlns="http://www.w3.org/2000/svg">
<path opacity="0.04" d="M459.808 243.419C459.806 291.545 446.321 338.59 421.058 378.604C395.794 418.619 359.887 449.805 317.877 468.221C275.867 486.637 229.641 491.454 185.045 482.063C140.448 472.673 99.4836 449.497 67.332 415.465C35.1804 381.434 13.2856 338.076 4.4162 290.875C-4.45324 243.673 0.101067 194.748 17.5033 150.286C34.9055 105.824 64.374 67.8224 102.182 41.0864C139.991 14.3504 184.441 0.0808449 229.911 0.0823976C260.103 0.0834285 289.998 6.37837 317.891 18.6077C345.784 30.8371 371.128 48.7615 392.476 71.3574C413.823 93.9533 430.757 120.778 442.31 150.301C453.863 179.823 459.809 211.465 459.808 243.419ZM203.335 372.218L373.876 191.719C375.256 190.262 376.351 188.531 377.098 186.626C377.845 184.72 378.23 182.678 378.23 180.615C378.23 178.551 377.845 176.509 377.098 174.603C376.351 172.698 375.256 170.967 373.876 169.51L352.892 147.464C351.518 146.004 349.886 144.845 348.088 144.055C346.29 143.265 344.362 142.858 342.415 142.858C340.469 142.858 338.541 143.265 336.743 144.055C334.945 144.845 333.312 146.004 331.938 147.464L192.845 294.682L127.899 225.782C125.111 222.848 121.339 221.2 117.407 221.2C113.475 221.2 109.703 222.848 106.915 225.782L85.9318 248.122C83.1593 251.072 81.6031 255.065 81.6031 259.226C81.6031 263.387 83.1593 267.38 85.9318 270.33L182.357 372.349C183.733 373.81 185.368 374.969 187.169 375.76C188.969 376.551 190.899 376.958 192.848 376.958C194.797 376.958 196.728 376.551 198.528 375.76C200.328 374.969 201.964 373.81 203.34 372.349L203.335 372.218Z" fill="#F23131"/>
</svg>
