<svg width="72" height="79" viewBox="0 0 72 79" fill="none" xmlns="http://www.w3.org/2000/svg">
<g filter="url(#filter0_d)">
<circle cx="36" cy="43" r="30" stroke="#F23131" stroke-width="4"/>
<rect x="30" y="4" width="12" height="3" fill="#F23131"/>
<line x1="36" y1="7" x2="35" y2="14" stroke="#F23131" stroke-width="4"/>
<line x1="15.9575" y1="18.5126" x2="13.8148" y2="13.9177" stroke="#F23131" stroke-width="2"/>
<mask id="path-5-inside-1" fill="white">
<path d="M8.73287 19.482C8.20561 18.729 7.83182 17.8795 7.63286 16.982C7.4339 16.0846 7.41365 15.1567 7.57328 14.2514C7.73291 13.3461 8.06928 12.4811 8.56319 11.7059C9.05711 10.9306 9.69889 10.2601 10.4519 9.73289C11.2049 9.20563 12.0544 8.83184 12.9519 8.63288C13.8493 8.43392 14.7772 8.41367 15.6825 8.5733C16.5878 8.73292 17.4527 9.0693 18.228 9.56321C19.0033 10.0571 19.6737 10.6989 20.201 11.4519L14.4669 15.467L8.73287 19.482Z"/>
</mask>
<path d="M8.73287 19.482C8.20561 18.729 7.83182 17.8795 7.63286 16.982C7.4339 16.0846 7.41365 15.1567 7.57328 14.2514C7.73291 13.3461 8.06928 12.4811 8.56319 11.7059C9.05711 10.9306 9.69889 10.2601 10.4519 9.73289C11.2049 9.20563 12.0544 8.83184 12.9519 8.63288C13.8493 8.43392 14.7772 8.41367 15.6825 8.5733C16.5878 8.73292 17.4527 9.0693 18.228 9.56321C19.0033 10.0571 19.6737 10.6989 20.201 11.4519L14.4669 15.467L8.73287 19.482Z" stroke="#F23131" stroke-width="4" mask="url(#path-5-inside-1)"/>
<line x1="55.5193" y1="19.0155" x2="58.4273" y2="14.8624" stroke="#F23131" stroke-width="2"/>
<mask id="path-7-inside-2" fill="white">
<path d="M52.015 11.4541C52.5423 10.7011 53.2127 10.0593 53.988 9.56536C54.7633 9.07145 55.6283 8.73507 56.5336 8.57545C57.4389 8.41582 58.3667 8.43607 59.2642 8.63503C60.1617 8.83399 61.0111 9.20777 61.7641 9.73504C62.5172 10.2623 63.1589 10.9327 63.6529 11.708C64.1468 12.4833 64.4831 13.3483 64.6428 14.2536C64.8024 15.1589 64.7821 16.0867 64.5832 16.9842C64.3842 17.8816 64.0104 18.7311 63.4832 19.4841L57.7491 15.4691L52.015 11.4541Z"/>
</mask>
<path d="M52.015 11.4541C52.5423 10.7011 53.2127 10.0593 53.988 9.56536C54.7633 9.07145 55.6283 8.73507 56.5336 8.57545C57.4389 8.41582 58.3667 8.43607 59.2642 8.63503C60.1617 8.83399 61.0111 9.20777 61.7641 9.73504C62.5172 10.2623 63.1589 10.9327 63.6529 11.708C64.1468 12.4833 64.4831 13.3483 64.6428 14.2536C64.8024 15.1589 64.7821 16.0867 64.5832 16.9842C64.3842 17.8816 64.0104 18.7311 63.4832 19.4841L57.7491 15.4691L52.015 11.4541Z" stroke="#F23131" stroke-width="4" mask="url(#path-7-inside-2)"/>
</g>
<defs>
<filter id="filter0_d" x="0" y="0" width="72" height="79" filterUnits="userSpaceOnUse" color-interpolation-filters="sRGB">
<feFlood flood-opacity="0" result="BackgroundImageFix"/>
<feColorMatrix in="SourceAlpha" type="matrix" values="0 0 0 0 0 0 0 0 0 0 0 0 0 0 0 0 0 0 127 0"/>
<feOffset/>
<feGaussianBlur stdDeviation="2"/>
<feColorMatrix type="matrix" values="0 0 0 0 0.298039 0 0 0 0 0.788235 0 0 0 0 0.941176 0 0 0 0.24 0"/>
<feBlend mode="normal" in2="BackgroundImageFix" result="effect1_dropShadow"/>
<feBlend mode="normal" in="SourceGraphic" in2="effect1_dropShadow" result="shape"/>
</filter>
</defs>
</svg>
