<svg width="30" height="31" viewBox="0 0 30 31" fill="none" xmlns="http://www.w3.org/2000/svg">
<g filter="url(#filter0_i)">
<path d="M21.6526 7.63825C21.214 7.48455 20.7806 7.39421 20.3523 7.36723C19.924 7.34025 19.4295 7.36534 18.869 7.4425L18.8251 5.10842C19.407 4.97035 20.0486 4.93527 20.7498 5.00317C21.4553 5.05889 22.1187 5.19562 22.7401 5.41337C23.5198 5.68663 24.1232 6.01434 24.5501 6.39651C24.9892 6.78295 25.2995 7.18579 25.4809 7.60503C25.6623 8.02427 25.7416 8.44195 25.7189 8.85806C25.7084 9.27844 25.6434 9.6592 25.5238 10.0003C25.4043 10.3415 25.2384 10.639 25.0263 10.893C24.8306 11.1391 24.6109 11.3562 24.3671 11.5443C24.1234 11.7325 23.8595 11.8999 23.5755 12.0467C23.2915 12.1934 23.0179 12.3301 22.7547 12.4567C22.5573 12.5516 22.3495 12.6567 22.1313 12.7717C21.9174 12.8746 21.7114 12.9939 21.5134 13.1297C21.3275 13.2698 21.1556 13.4284 20.9978 13.6057C20.8442 13.7707 20.7311 13.9568 20.6585 14.1639C20.6414 14.2126 20.6158 14.2857 20.5816 14.3832C20.5475 14.4807 20.5237 14.5681 20.5102 14.6455L18.0979 13.8001C18.1163 13.6697 18.1449 13.5293 18.184 13.3788C18.2395 13.2204 18.2865 13.0864 18.3249 12.9768C18.4444 12.6356 18.5938 12.346 18.773 12.1078C18.9565 11.8575 19.1558 11.6401 19.371 11.4556C19.6026 11.2631 19.846 11.0954 20.1014 10.9523C20.3567 10.8092 20.616 10.6744 20.8792 10.5478C21.2577 10.3657 21.6096 10.1813 21.935 9.99435C22.2647 9.79526 22.4914 9.51905 22.6152 9.16573C22.7177 8.87333 22.6895 8.58301 22.5306 8.29477C22.3839 8.01079 22.0912 7.79196 21.6526 7.63825ZM20.1308 17.4263C19.9429 17.9623 19.6211 18.3147 19.1653 18.4832C18.7217 18.6561 18.2806 18.6657 17.842 18.512C17.4034 18.3583 17.0587 18.0733 16.8078 17.6571C16.5692 17.2451 16.5438 16.7711 16.7316 16.235C16.9195 15.699 17.2352 15.3445 17.6788 15.1717C18.1346 15.0031 18.5818 14.9956 19.0204 15.1493C19.459 15.303 19.7977 15.5859 20.0363 15.9978C20.2872 16.414 20.3187 16.8902 20.1308 17.4263Z" fill="#141622"/>
</g>
<g filter="url(#filter1_i)">
<path d="M14.3089 17.2371C15.3376 14.9914 14.9008 12.248 13.0233 10.4349C10.6423 8.1356 6.83864 8.202 4.53933 10.583C2.24001 12.964 2.3064 16.7677 4.68741 19.067C6.56489 20.8801 9.3219 21.2209 11.5303 20.1145L14.6594 23.1362L11.8808 26.0136L14.7582 28.7922L17.5368 25.9149L18.9755 27.3042L21.7541 24.4268L14.3089 17.2371ZM7.46605 16.1896C6.67477 15.4255 6.65256 14.1529 7.41668 13.3616C8.18081 12.5704 9.45341 12.5482 10.2447 13.3123C11.036 14.0764 11.0582 15.349 10.294 16.1403C9.52992 16.9315 8.25732 16.9538 7.46605 16.1896Z" fill="#141622"/>
</g>
<defs>
<filter id="filter0_i" x="16.6075" y="4.96959" width="9.11519" height="13.6509" filterUnits="userSpaceOnUse" color-interpolation-filters="sRGB">
<feFlood flood-opacity="0" result="BackgroundImageFix"/>
<feBlend mode="normal" in="SourceGraphic" in2="BackgroundImageFix" result="shape"/>
<feColorMatrix in="SourceAlpha" type="matrix" values="0 0 0 0 0 0 0 0 0 0 0 0 0 0 0 0 0 0 127 0" result="hardAlpha"/>
<feOffset/>
<feGaussianBlur stdDeviation="1.81545"/>
<feComposite in2="hardAlpha" operator="arithmetic" k2="-1" k3="1"/>
<feColorMatrix type="matrix" values="0 0 0 0 0.298039 0 0 0 0 0.788235 0 0 0 0 0.941176 0 0 0 0.32 0"/>
<feBlend mode="normal" in2="shape" result="effect1_innerShadow"/>
</filter>
<filter id="filter1_i" x="0.371338" y="6.26697" width="24.1614" height="23.9146" filterUnits="userSpaceOnUse" color-interpolation-filters="sRGB">
<feFlood flood-opacity="0" result="BackgroundImageFix"/>
<feBlend mode="normal" in="SourceGraphic" in2="BackgroundImageFix" result="shape"/>
<feColorMatrix in="SourceAlpha" type="matrix" values="0 0 0 0 0 0 0 0 0 0 0 0 0 0 0 0 0 0 127 0" result="hardAlpha"/>
<feOffset/>
<feGaussianBlur stdDeviation="1.5"/>
<feComposite in2="hardAlpha" operator="arithmetic" k2="-1" k3="1"/>
<feColorMatrix type="matrix" values="0 0 0 0 0.298039 0 0 0 0 0.788235 0 0 0 0 0.941176 0 0 0 0.32 0"/>
<feBlend mode="normal" in2="shape" result="effect1_innerShadow"/>
</filter>
</defs>
</svg>
